<?xml version="1.0" encoding="iso-8859-1"?>
<!-- Generator: Adobe Illustrator 19.0.0, SVG Export Plug-In . SVG Version: 6.00 Build 0)  -->
<svg version="1.1" id="Layer_1" xmlns="http://www.w3.org/2000/svg" xmlns:xlink="http://www.w3.org/1999/xlink" x="0px" y="0px"
	 viewBox="0 0 459.999 459.999" style="enable-background:new 0 0 459.999 459.999;" xml:space="preserve">
<g id="XMLID_1304_">
	<path id="XMLID_1116_" style="fill:#D7D5C8;" d="M428.064,408.867L428.064,408.867c-8.388,8.388-22.239,7.488-29.471-1.914
		L283.982,257.959l-22.562,22.562c-14.113,14.113-29.99,26.344-47.237,36.39l-45.349,26.413l2.809,103.063
		c0.099,3.638-1.302,7.156-3.876,9.729c-6.478,6.478-17.42,4.583-21.342-3.697l-35.657-75.276l-16.054,9.35
		c-6.088,3.223-13.565,2.098-18.436-2.772c-4.871-4.871-5.995-12.348-2.772-18.436l9.35-16.054L7.58,313.574
		c-8.28-3.922-10.175-14.863-3.697-21.342c2.573-2.573,6.092-3.975,9.729-3.876l103.063,2.809l26.413-45.349
		c10.045-17.247,22.276-33.124,36.39-47.237l22.562-22.562L53.046,61.406c-9.402-7.233-10.302-21.083-1.914-29.471l0,0
		c5.351-5.351,13.299-7.154,20.435-4.635l206.358,72.832l76.559-76.559c11.501-11.501,26.671-18.607,42.87-20.079l37.368-3.397
		c14.414-1.31,26.49,10.765,25.18,25.18l-3.397,37.368c-1.473,16.199-8.578,31.369-20.079,42.87l-76.559,76.559l72.832,206.358
		C435.218,395.567,433.415,403.516,428.064,408.867z"/>
	<path id="XMLID_1115_" style="fill:#D4632E;" d="M183.348,284.846l-99.422,99.422c-1.961,1.961-5.141,1.961-7.102,0l-1.092-1.092
		c-1.961-1.961-1.961-5.141,0-7.103l99.422-99.422c1.961-1.961,5.141-1.961,7.102,0l1.092,1.092
		C185.309,279.704,185.309,282.884,183.348,284.846z"/>
	<path id="XMLID_1113_" style="fill:#ADABA3;" d="M167.766,456.116c-6.478,6.478-17.42,4.583-21.342-3.697l-35.657-75.276
		l58.066-33.819l2.809,103.063C171.741,450.024,170.34,453.543,167.766,456.116z M116.675,291.166l-103.063-2.809
		c-3.638-0.099-7.156,1.302-9.729,3.876c-6.478,6.478-4.583,17.42,3.697,21.342l75.276,35.657L116.675,291.166z"/>
	<path id="XMLID_1112_" style="fill:#BEBCB2;" d="M168.833,343.324L171.56,443.4c-3.722-0.88-7.087-3.333-8.918-7.198
		l-33.143-69.969L168.833,343.324z M23.797,297.357L93.766,330.5l22.91-39.334L16.6,288.439
		C17.479,292.161,19.932,295.526,23.797,297.357z"/>
	<path id="XMLID_1109_" style="fill:#ADABA3;" d="M202.04,176.017L53.046,61.406c-9.402-7.233-10.302-21.083-1.914-29.471l0,0
		c5.351-5.351,13.299-7.154,20.435-4.635l206.358,72.832L202.04,176.017z M432.699,388.431l-72.832-206.358l-75.885,75.885
		l114.611,148.994c7.233,9.402,21.083,10.302,29.471,1.914l0,0C433.415,403.516,435.218,395.567,432.699,388.431z"/>
	<path id="XMLID_221_" style="fill:#BEBCB2;" d="M71.568,27.3l206.358,72.832l-53.231,53.231L75.701,38.752
		c-4.114-3.165-6.601-7.598-7.393-12.285C69.405,26.653,70.496,26.921,71.568,27.3z M433.532,391.691
		c-0.186-1.097-0.455-2.188-0.833-3.26l-72.832-206.358l-53.231,53.231l114.611,148.994
		C424.413,388.413,428.845,390.899,433.532,391.691z"/>
	<path id="XMLID_1114_" style="fill:#5C676B;" d="M371.268,23.178l-7.437-7.437c9.862-6.89,21.404-11.146,33.524-12.247
		l29.012-2.637l-22.322,22.322C394.993,32.229,380.319,32.229,371.268,23.178z M456.505,62.645l2.637-29.012L436.82,55.955
		c-9.051,9.051-9.051,23.726,0,32.777l7.437,7.437C451.148,86.306,455.404,74.764,456.505,62.645z"/>
</g>
<g>
</g>
<g>
</g>
<g>
</g>
<g>
</g>
<g>
</g>
<g>
</g>
<g>
</g>
<g>
</g>
<g>
</g>
<g>
</g>
<g>
</g>
<g>
</g>
<g>
</g>
<g>
</g>
<g>
</g>
</svg>
