<?xml version="1.0" encoding="iso-8859-1"?>
<!-- Generator: Adobe Illustrator 19.0.0, SVG Export Plug-In . SVG Version: 6.00 Build 0)  -->
<svg version="1.1" id="Layer_1" xmlns="http://www.w3.org/2000/svg" xmlns:xlink="http://www.w3.org/1999/xlink" x="0px" y="0px"
	 viewBox="0 0 504.2 504.2" style="enable-background:new 0 0 504.2 504.2;" xml:space="preserve">
<rect x="36" y="322.9" style="fill:#DBDBDB;" width="456" height="56"/>
<path style="fill:#FFAF99;" d="M76,202.9v-36.8c0-18.4,16-35.2,34.4-35.2h98.4c18.4,0,35.2,16.8,35.2,35.2v36.8"/>
<path style="fill:#F15249;" d="M260,202.9v-36.8c0-18.4,16.8-35.2,35.2-35.2h98.4c18.4,0,34.4,16.8,34.4,35.2v36.8"/>
<path style="fill:#FC9881;" d="M108,130.9h100.8c18.4,0,35.2,16.8,35.2,35.2v36.8"/>
<path style="fill:#FFAF99;" d="M260,202.9v-36.8c0-18.4,16.8-35.2,35.2-35.2h98.4c18.4,0,34.4,16.8,34.4,35.2v36.8"/>
<path style="fill:#FC9881;" d="M292,130.9h101.6c18.4,0,34.4,16.8,34.4,35.2v36.8"/>
<path style="fill:#FFC114;" d="M466.4,242.9c0-32-19.2-56-43.2-56H81.6c-24,0-43.2,24-43.2,56H466.4z"/>
<rect x="4" y="234.9" style="fill:#3CC676;" width="496" height="88"/>
<g>
	<polyline style="fill:#0AA06E;" points="4,234.9 500,234.9 500,322.9 	"/>
	<rect x="4" y="322.9" style="fill:#0AA06E;" width="48" height="56"/>
	<rect x="452" y="322.9" style="fill:#0AA06E;" width="48" height="56"/>
</g>
<path style="fill:#FCA12A;" d="M252,234.9h214.4c0-32-19.2-48-43.2-48H252V234.9z"/>
<rect x="12" y="162.9" style="fill:#0AA06E;" width="24" height="72"/>
<circle style="fill:#3CC676;" cx="23.2" cy="148.5" r="23.2"/>
<g>
	<path style="fill:#0AA06E;" d="M39.2,131.7c8.8,8.8,8.8,24,0,32.8s-24,8.8-32.8,0"/>
	<rect x="468" y="162.9" style="fill:#0AA06E;" width="24" height="80"/>
</g>
<circle style="fill:#3CC676;" cx="480.8" cy="148.5" r="23.2"/>
<path style="fill:#0AA06E;" d="M497.6,131.7c8.8,8.8,8.8,24,0,32.8s-24,8.8-32.8,0"/>
<g>
</g>
<g>
</g>
<g>
</g>
<g>
</g>
<g>
</g>
<g>
</g>
<g>
</g>
<g>
</g>
<g>
</g>
<g>
</g>
<g>
</g>
<g>
</g>
<g>
</g>
<g>
</g>
<g>
</g>
</svg>
